<svg width="19" height="18" viewBox="0 0 19 18" fill="none" xmlns="http://www.w3.org/2000/svg">
<g id="Frame" clip-path="url(#clip0_6424_11554)">
<g id="Group">
<g id="Group_2">
<path id="Vector" d="M15.6162 0H13.627C13.08 0 12.6324 0.47003 12.6324 1.04451C12.6324 1.61899 12.1848 2.08902 11.6378 2.08902C11.0908 2.08902 10.6432 1.61899 10.6432 1.04451C10.6432 0.47003 10.1956 0 9.6486 0H7.16211C6.61509 0 6.16752 0.47003 6.16752 1.04451C6.16752 1.61899 5.71995 2.08902 5.17292 2.08902C4.6259 2.08902 4.17833 1.61899 4.17833 1.04451C4.17833 0.47003 3.73076 0 3.18374 0H1.19455C0.647519 0 0.199951 0.47003 0.199951 1.04451V14.1009C0.199951 14.6754 0.647519 15.1454 1.19455 15.1454H8.75347C8.50482 14.4665 8.35563 13.6831 8.35563 12.8997C8.3059 9.50504 10.9416 6.78932 14.1243 6.78932C15.0194 6.78932 15.8648 6.99822 16.6108 7.3638V1.04451C16.6108 0.47003 16.1632 0 15.6162 0ZM3.18374 12.6386C2.63671 12.6386 2.18914 12.1685 2.18914 11.5941C2.18914 11.0196 2.63671 10.5496 3.18374 10.5496C3.73076 10.5496 4.17833 11.0196 4.17833 11.5941C4.17833 12.1685 3.73076 12.6386 3.18374 12.6386ZM3.18374 9.50504C2.63671 9.50504 2.18914 9.03502 2.18914 8.46053C2.18914 7.88605 2.63671 7.41602 3.18374 7.41602C3.73076 7.41602 4.17833 7.88605 4.17833 8.46053C4.17833 9.03502 3.73076 9.50504 3.18374 9.50504ZM6.16752 12.6386C5.62049 12.6386 5.17292 12.1685 5.17292 11.5941C5.17292 11.0196 5.62049 10.5496 6.16752 10.5496C6.71455 10.5496 7.16211 11.0196 7.16211 11.5941C7.16211 12.1685 6.71455 12.6386 6.16752 12.6386ZM6.16752 9.50504C5.62049 9.50504 5.17292 9.03502 5.17292 8.46053C5.17292 7.88605 5.62049 7.41602 6.16752 7.41602C6.71455 7.41602 7.16211 7.88605 7.16211 8.46053C7.16211 9.03502 6.71455 9.50504 6.16752 9.50504ZM6.16752 6.37151C5.62049 6.37151 5.17292 5.90148 5.17292 5.327C5.17292 4.75252 5.62049 4.28249 6.16752 4.28249C6.71455 4.28249 7.16211 4.75252 7.16211 5.327C7.16211 5.90148 6.71455 6.37151 6.16752 6.37151ZM9.1513 6.37151C8.60428 6.37151 8.15671 5.90148 8.15671 5.327C8.15671 4.75252 8.60428 4.28249 9.1513 4.28249C9.69833 4.28249 10.1459 4.75252 10.1459 5.327C10.1459 5.90148 9.69833 6.37151 9.1513 6.37151Z" fill="white"/>
<path id="Vector_2" d="M14.1242 8.19922C11.6377 8.19922 9.64856 10.2882 9.64856 12.8995C9.64856 15.5108 11.6377 17.5998 14.1242 17.5998C16.6107 17.5998 18.5999 15.5108 18.5999 12.8995C18.5999 10.2882 16.6107 8.19922 14.1242 8.19922ZM14.721 13.1606C14.721 13.5262 14.4226 13.7873 14.1242 13.7873H11.6377C11.2896 13.7873 11.041 13.474 11.041 13.1606C11.041 12.7951 11.3394 12.5339 11.6377 12.5339H13.5275V10.0271C13.5275 9.66153 13.8259 9.40041 14.1242 9.40041C14.4226 9.40041 14.721 9.71376 14.721 10.0271V13.1606Z" fill="white"/>
</g>
</g>
</g>
<defs>
<clipPath id="clip0_6424_11554">
<rect width="18.4" height="17.6" fill="white" transform="translate(0.199951)"/>
</clipPath>
</defs>
</svg>
