<svg width="20" height="20" viewBox="0 0 20 20" fill="none" xmlns="http://www.w3.org/2000/svg">
<g id="Frame" clip-path="url(#clip0_6424_11615)">
<g id="Group">
<g id="Group_2">
<path id="Vector" d="M1.2446 1.24488C0.118499 2.37098 0.118499 4.11643 1.2446 5.24253L3.21527 7.21321L2.20178 8.2267C2.08917 8.33931 2.08917 8.50822 2.20178 8.62083L3.38419 9.80324C3.4968 9.91585 3.66571 9.91585 3.77832 9.80324L9.80296 3.83491C9.91557 3.7223 9.91557 3.55338 9.80296 3.44077L8.62055 2.25837C8.50794 2.14576 8.33903 2.14576 8.22642 2.25837L7.21293 3.27186L5.24225 1.30118C4.11615 0.118778 2.31439 0.118779 1.2446 1.24488Z" fill="white"/>
<path id="Vector_2" d="M9.4088 5.80554L5.80528 9.40906C5.69267 9.52167 5.69267 9.69059 5.80528 9.8032L14.3073 18.3053C14.4199 18.4179 14.5326 18.4742 14.7015 18.4742L17.2352 18.4742L18.1361 19.375C18.4739 19.7129 18.9807 19.7129 19.3185 19.375C19.4874 19.2061 19.5437 18.9809 19.5437 18.7557C19.5437 18.5305 19.4874 18.3053 19.3185 18.1363L18.4176 17.2918L18.4176 14.758C18.4176 14.5891 18.3613 14.4765 18.2487 14.3639L9.74663 5.86185C9.69033 5.69293 9.52141 5.69293 9.4088 5.80554ZM13.0123 12.6748L15.3771 15.0396C15.4897 15.1522 15.6024 15.3774 15.6024 15.5463C15.6024 15.7152 15.546 15.8841 15.3771 16.0531C15.0956 16.3346 14.6452 16.3346 14.3636 16.0531L11.9988 13.6882C11.7173 13.4067 11.7173 12.9563 11.9988 12.6748C12.2804 12.3932 12.7308 12.3932 13.0123 12.6748ZM10.4223 10.0847L11.2106 10.873C11.3232 10.9856 11.4358 11.2108 11.4358 11.3797C11.4358 11.5487 11.3795 11.7176 11.2106 11.8865C10.929 12.168 10.4786 12.168 10.1971 11.8865L9.4088 11.0982C9.12728 10.8167 9.12728 10.3662 9.4088 10.0847C9.69033 9.8032 10.1408 9.8032 10.4223 10.0847Z" fill="white"/>
</g>
</g>
</g>
<defs>
<clipPath id="clip0_6424_11615">
<rect width="19.2" height="19.2" fill="white" transform="translate(0.400024 19.6001) rotate(-90)"/>
</clipPath>
</defs>
</svg>
